<svg version="1.1" xmlns="http://www.w3.org/2000/svg" style="display: block;" viewBox="0 0 2048 2048" width="1024" height="1024" preserveAspectRatio="none">
<defs>
	<linearGradient id="Gradient1" gradientUnits="userSpaceOnUse" x1="934.565" y1="1810.76" x2="898.725" y2="1679.62">
		<stop class="stop0" offset="0" stop-opacity="1" stop-color="rgb(76,104,195)"/>
		<stop class="stop1" offset="1" stop-opacity="1" stop-color="rgb(104,163,206)"/>
	</linearGradient>
	<linearGradient id="Gradient2" gradientUnits="userSpaceOnUse" x1="472.93" y1="1811.93" x2="476.8" y2="1677.94">
		<stop class="stop0" offset="0" stop-opacity="1" stop-color="rgb(74,105,198)"/>
		<stop class="stop1" offset="1" stop-opacity="1" stop-color="rgb(97,169,213)"/>
	</linearGradient>
	<linearGradient id="Gradient3" gradientUnits="userSpaceOnUse" x1="1080.59" y1="1266.07" x2="1082.05" y2="813.932">
		<stop class="stop0" offset="0" stop-opacity="1" stop-color="rgb(53,96,217)"/>
		<stop class="stop1" offset="1" stop-opacity="1" stop-color="rgb(79,163,218)"/>
	</linearGradient>
	<linearGradient id="Gradient4" gradientUnits="userSpaceOnUse" x1="369.496" y1="1356.01" x2="1172.35" y2="723.511">
		<stop class="stop0" offset="0" stop-opacity="1" stop-color="rgb(90,115,185)"/>
		<stop class="stop1" offset="1" stop-opacity="1" stop-color="rgb(107,180,215)"/>
	</linearGradient>
</defs>
<path transform="translate(0,0)" fill="rgb(2,2,4)" d="M 0 0 L 2048 0 L 2048 2048 L 0 2048 L 0 0 z"/>
<path transform="translate(0,0)" fill="rgb(32,41,70)" d="M 562 241.833 C 563.751 239.832 562.835 240.073 564.523 239.799 C 577.336 237.723 595.346 228.813 608.005 227.51 C 626.385 225.619 648.403 227.894 666.948 227.669 C 670.772 227.623 678.576 226.112 683.849 225.751 C 703.562 224.349 723.301 223.326 743.053 222.683 C 754.639 222.344 781.552 226.3 789.921 224.374 C 812.604 219.156 822.002 223.193 842.998 222.815 C 911.51 221.58 979.909 225.17 1048.41 222.905 C 1067.88 222.215 1087.66 223.709 1107.2 223.726 L 1244.62 224.257 C 1297.03 224.292 1349.28 223.766 1400.89 235.112 C 1409.23 236.946 1421.95 236.109 1431.2 237.567 C 1452.69 240.956 1466.72 252.367 1485.26 261.815 C 1498.36 268.49 1514.02 267.642 1524.87 280.048 C 1533.6 287.385 1538.71 298.595 1547.07 306.073 C 1554.85 313.029 1573.5 322.28 1578.5 331.798 C 1598.09 369.08 1632.49 402.125 1638.82 445.398 C 1641.92 453.158 1643.96 460.542 1645.88 468.64 C 1649.77 485.007 1650.77 501.396 1652.8 517.971 C 1664.24 611.526 1659.89 709.465 1659.49 803.514 L 1660.52 999.149 C 1660.7 1013.8 1663.03 1030.61 1662.57 1045.49 C 1662.03 1062.88 1659.68 1079.85 1659.46 1097.43 C 1659.39 1121.32 1659.43 1145.21 1659.6 1169.1 C 1659.9 1189.03 1661.51 1213.79 1657.88 1233.46 C 1656.26 1242.2 1651.04 1253.6 1649.58 1263.92 C 1648.62 1270.65 1649.29 1297.33 1647.15 1302.23 C 1636.25 1327.14 1624.43 1359.14 1610.89 1382.4 C 1607.71 1387.87 1593.63 1399.71 1588.26 1408.22 C 1582.14 1417.92 1571.54 1437.17 1564.03 1443.94 C 1545.47 1460.65 1521.26 1474.73 1499.51 1488.57 C 1476.91 1502.94 1441.22 1514.33 1415.79 1524.07 C 1411.77 1525.61 1396.23 1526.96 1391.05 1528.46 C 1384.96 1530.23 1379.46 1532.22 1373.25 1533.08 C 1334.03 1538.51 1296.98 1535.96 1258 1535.72 L 1079.74 1535.47 L 772.67 1535.52 C 746.108 1535.39 720.614 1537.65 694.185 1536.53 C 646.259 1534.51 601.106 1534.98 554.144 1523.24 C 542.464 1520.32 530.126 1514.72 518.454 1511.39 C 483.154 1503.91 455.341 1483.24 428.013 1460.81 C 419.067 1453.47 395.573 1436.86 391.004 1426.67 C 381.486 1404.79 364.709 1388.83 352.854 1369.63 C 345.879 1358.33 345.805 1329.94 336.573 1317.35 C 319.598 1294.19 325.147 1259.39 317.73 1231.8 C 315.588 1223.83 318.105 1206.17 316.385 1197.35 C 308.744 1148.05 314.328 1097.98 313.208 1048.65 C 310.967 949.96 314.645 851.754 311.18 752.998 C 309.94 717.622 312.747 680.25 312.463 644.743 C 310.362 553.344 314.938 454.508 368.254 376.559 C 374.044 368.094 387.709 338.39 399.454 338.978 C 409.846 323.136 443.6 295.114 457.751 280.07 C 475.597 272.402 496.213 268.565 509.388 252.821 C 517.837 242.725 551.206 241.62 562 241.833 z"/>
<path transform="translate(0,0)" fill="rgb(2,2,4)" d="M 596.47 239.749 C 608.558 239.881 620.89 239.096 633.056 239.069 L 758.033 239.12 L 1165.89 239.088 L 1303.6 239.107 C 1339.84 239.126 1377.35 237.351 1413.19 244.098 C 1520.81 264.357 1607.01 349.303 1628.27 456.733 C 1635.64 493.946 1633.81 538.293 1633.8 576.932 L 1633.69 727.62 L 1633.49 1053.28 C 1633.5 1110.94 1633.6 1168.64 1633.54 1226.3 C 1633.53 1233.22 1633.26 1248.71 1632.06 1255.08 C 1632.48 1289.26 1612.25 1341.87 1593.93 1370.94 C 1555.3 1433.53 1492.97 1477.81 1421.15 1493.68 C 1386.14 1501.56 1358.08 1500.06 1322.59 1500.06 L 1236.35 1500.02 L 946.104 1499.91 L 713.487 1499.95 L 640.033 1500.08 C 619.838 1500.1 598.346 1500.49 578.403 1498.01 C 464.133 1483.8 369.66 1396.94 347.386 1283.98 C 340.462 1248.86 340.995 1219.77 340.958 1184.07 L 340.922 1097.49 L 340.956 803.645 L 340.933 598.98 C 340.915 531.302 335.667 463.495 364.701 400.463 C 372.82 382.837 383.032 366.523 393.52 350.265 C 399.336 344.452 408.774 331.137 416.488 323.082 C 445.991 292.275 497.647 258.716 539.536 249.664 C 552.393 244.153 581.828 241.208 596.47 239.749 z"/>
<path transform="translate(0,0)" fill="url(#Gradient4)" d="M 393.52 350.265 C 399.336 344.452 408.774 331.137 416.488 323.082 C 445.991 292.275 497.647 258.716 539.536 249.664 C 537.643 252.568 466.197 275.089 448.704 299.912 L 449.508 300.672 C 458.295 297.467 468.566 289.193 476.427 284.294 C 487.491 277.4 526.676 256.499 539.532 258.686 C 414.809 298.514 346.551 402.422 350.109 530.486 C 350.889 558.574 350.088 588.309 350.095 616.532 L 350.172 837.124 L 350.112 1099.75 C 350.11 1128.53 350.221 1157.35 350.075 1186.13 C 349.859 1228.73 349.896 1269.81 363.155 1310.88 C 384.667 1376.69 431.481 1431.23 493.266 1462.48 C 523.455 1477.9 556.364 1487.29 590.148 1490.11 C 606.133 1491.54 623.729 1491.14 639.906 1491.12 L 708.927 1491.08 L 933.081 1491.06 L 1224.62 1491.09 L 1317.52 1491.1 C 1362.99 1491.12 1400.72 1492.55 1445.06 1478.18 C 1511.33 1455.99 1566.14 1408.52 1597.57 1346.1 C 1616.45 1308.94 1621.75 1275.2 1624.97 1234.39 C 1629.36 1239.88 1621.2 1280.67 1619.36 1289.87 C 1619.28 1290.25 1622.02 1295.05 1622.43 1296.64 L 1623.96 1296.22 C 1629.51 1285.4 1629.13 1252.84 1631.29 1242.95 C 1632.03 1247.27 1631.67 1250.93 1632.06 1255.08 C 1632.48 1289.26 1612.25 1341.87 1593.93 1370.94 C 1555.3 1433.53 1492.97 1477.81 1421.15 1493.68 C 1386.14 1501.56 1358.08 1500.06 1322.59 1500.06 L 1236.35 1500.02 L 946.104 1499.91 L 713.487 1499.95 L 640.033 1500.08 C 619.838 1500.1 598.346 1500.49 578.403 1498.01 C 464.133 1483.8 369.66 1396.94 347.386 1283.98 C 340.462 1248.86 340.995 1219.77 340.958 1184.07 L 340.922 1097.49 L 340.956 803.645 L 340.933 598.98 C 340.915 531.302 335.667 463.495 364.701 400.463 C 372.82 382.837 383.032 366.523 393.52 350.265 z"/>
<path transform="translate(0,0)" fill="rgb(83,128,208)" d="M 596.47 239.749 C 608.558 239.881 620.89 239.096 633.056 239.069 L 758.033 239.12 L 1165.89 239.088 L 1303.6 239.107 C 1339.84 239.126 1377.35 237.351 1413.19 244.098 C 1520.81 264.357 1607.01 349.303 1628.27 456.733 C 1635.64 493.946 1633.81 538.293 1633.8 576.932 L 1633.69 727.62 L 1633.49 1053.28 C 1633.5 1110.94 1633.6 1168.64 1633.54 1226.3 C 1633.53 1233.22 1633.26 1248.71 1632.06 1255.08 C 1631.67 1250.93 1632.03 1247.27 1631.29 1242.95 C 1629.13 1252.84 1629.51 1285.4 1623.96 1296.22 L 1622.43 1296.64 C 1622.02 1295.05 1619.28 1290.25 1619.36 1289.87 C 1621.2 1280.67 1629.36 1239.88 1624.97 1234.39 C 1624.03 1216.36 1624.85 1190.49 1624.86 1172.03 L 1624.91 1048.58 L 1624.9 673.859 L 1624.95 563.519 C 1624.95 527.912 1626.07 494.159 1619.4 458.695 C 1599.2 351.237 1507.53 263.543 1398.56 250.808 C 1363.39 246.699 1321.92 248.296 1286.01 248.246 L 1087.73 248.275 L 783.273 248.327 L 660.839 248.281 C 636.344 248.281 609.582 248.024 585.252 249.745 C 572.344 250.658 552.811 255.966 539.532 258.686 C 526.676 256.499 487.491 277.4 476.427 284.294 C 468.566 289.193 458.295 297.467 449.508 300.672 L 448.704 299.912 C 466.197 275.089 537.643 252.568 539.536 249.664 C 552.393 244.153 581.828 241.208 596.47 239.749 z"/>
<path transform="translate(0,0)" fill="url(#Gradient3)" d="M 1065.59 812.401 C 1065.93 812.363 1066.26 812.325 1066.6 812.286 C 1272.18 802.284 1387.19 1034.58 1254.53 1188.67 C 1269.14 1208.76 1297.45 1236.21 1314.06 1256.95 C 1264.98 1256.63 1244.52 1264 1199.45 1236.71 C 1187.63 1242.68 1175.05 1249.21 1162.78 1254.01 C 1143.12 1261.28 1122.62 1266.04 1101.76 1268.16 C 1040.57 1274.14 979.745 1253.61 932.556 1214.71 C 886.413 1176.25 857.251 1121.18 851.367 1061.4 C 839.055 931.929 938.271 823.283 1065.59 812.401 z"/>
<path transform="translate(0,0)" fill="rgb(2,2,4)" d="M 1075.77 907.413 C 1161.67 902.737 1227.42 984.629 1209.12 1067.16 C 1204.61 1087.52 1199.08 1099.94 1188.48 1117.7 C 1146.21 1091.68 1117.03 1099.84 1067.91 1098.04 L 1115.59 1149.98 C 1121.06 1155.42 1124.76 1159.16 1129.59 1165.11 C 1094.51 1177.59 1051.67 1177.26 1018.78 1158.49 C 903.027 1092.41 937.922 916.253 1075.77 907.413 z"/>
<path transform="translate(0,0)" fill="rgb(83,128,208)" d="M 1199.11 482.445 C 1205.83 479.209 1216.3 475.044 1223.43 472.929 C 1251.61 464.562 1281.37 450.015 1309.08 441.856 C 1308.03 447.945 1307.36 456.833 1306.7 463.178 C 1306.2 476.844 1303.9 494.237 1302.49 508.129 L 1295.96 575.452 C 1294.07 593.611 1292.29 611.78 1290.6 629.958 C 1289.8 638.603 1288.96 652.26 1287.62 660.515 L 1286.32 661.084 C 1268.52 646.128 1251.6 628.752 1233.59 614.468 L 1232.81 615.639 C 1213.09 645.042 1179.23 677.446 1150.68 698.048 C 1097.16 737.788 1017.82 757.481 950.973 748.303 C 882.393 738.886 830.804 731.201 760.54 745.06 C 681.27 761.507 610.031 804.622 558.692 867.219 C 549.522 878.366 540.371 892.588 532.18 904.765 C 540.294 881.106 567.127 842.014 583.01 823.044 C 660.899 730.017 759.575 684.288 879.357 677.438 C 906.991 674.043 936.519 679.442 963.76 676.531 C 1043.71 667.988 1110.63 615.748 1158.66 557.049 C 1142.96 545.036 1117.89 529.684 1100.59 517.732 C 1123.24 508.247 1147.86 500.943 1170.86 492.155 C 1179.81 488.737 1189.97 485.094 1199.11 482.445 z"/>
<path transform="translate(0,0)" fill="rgb(145,137,228)" d="M 1199.11 482.445 C 1205.83 479.209 1216.3 475.044 1223.43 472.929 C 1251.61 464.562 1281.37 450.015 1309.08 441.856 C 1308.03 447.945 1307.36 456.833 1306.7 463.178 C 1306.2 476.844 1303.9 494.237 1302.49 508.129 L 1295.96 575.452 C 1294.07 593.611 1292.29 611.78 1290.6 629.958 C 1289.8 638.603 1288.96 652.26 1287.62 660.515 L 1286.32 661.084 C 1287.24 657.354 1289.77 618.948 1289.19 617.223 L 1287.87 617.373 C 1284.86 625.117 1285.39 642.869 1283.15 646.423 C 1276.32 646.244 1242.59 615.48 1236.32 609.626 C 1230.75 609.934 1227.76 614.03 1223.88 618.042 C 1226.98 613.635 1230.16 609.493 1233.42 605.221 C 1245.69 617.015 1268.67 636.897 1282.66 646.031 C 1283.31 632.984 1285.6 619.549 1286.31 606.501 C 1289.06 555.533 1296.46 504.785 1297.84 453.837 C 1272.14 462.957 1246.16 471.361 1220.69 481.185 C 1215.43 483.214 1211.5 485.064 1205.94 486.25 C 1207.05 481.219 1241.8 474.077 1247.1 469.502 C 1251.47 465.723 1261.92 467.345 1263.61 461.265 C 1259.82 459.331 1207.26 483.621 1199.11 482.445 z"/>
<path transform="translate(0,0)" fill="rgb(83,128,208)" d="M 702.389 830.195 C 733.866 829.511 770.294 829.635 801.784 830.264 C 800.237 973.985 802.349 1119.86 801.601 1263.89 L 702.384 1263.89 C 701.494 1244.69 702.12 1220.25 702.117 1200.83 L 702.108 1084.54 C 702.081 1001.39 700.463 912.679 702.389 830.195 z"/>
<g transform="translate(1615, 1470) scale(0.27)">
<path transform="translate(0,0)" fill="url(#Gradient3)" d="M 1065.59 812.401 C 1065.93 812.363 1066.26 812.325 1066.6 812.286 C 1272.18 802.284 1387.19 1034.58 1254.53 1188.67 C 1269.14 1208.76 1297.45 1236.21 1314.06 1256.95 C 1264.98 1256.63 1244.52 1264 1199.45 1236.71 C 1187.63 1242.68 1175.05 1249.21 1162.78 1254.01 C 1143.12 1261.28 1122.62 1266.04 1101.76 1268.16 C 1040.57 1274.14 979.745 1253.61 932.556 1214.71 C 886.413 1176.25 857.251 1121.18 851.367 1061.4 C 839.055 931.929 938.271 823.283 1065.59 812.401 z"/>
<path transform="translate(0,0)" fill="rgb(2,2,4)" d="M 1075.77 907.413 C 1161.67 902.737 1227.42 984.629 1209.12 1067.16 C 1204.61 1087.52 1199.08 1099.94 1188.48 1117.7 C 1146.21 1091.68 1117.03 1099.84 1067.91 1098.04 L 1115.59 1149.98 C 1121.06 1155.42 1124.76 1159.16 1129.59 1165.11 C 1094.51 1177.59 1051.67 1177.26 1018.78 1158.49 C 903.027 1092.41 937.922 916.253 1075.77 907.413 z"/>
</g>
<path transform="translate(0,0)" fill="url(#Gradient2)" d="M 464.981 1676.9 L 481.18 1676.88 C 500.561 1721.96 525.665 1768.71 544.113 1812.65 L 527.959 1812.47 C 521.9 1800.28 517.179 1788.32 510.65 1775.96 L 481.75 1776.06 L 434.906 1776 C 429.479 1787.24 423.876 1801.17 418.864 1812.79 L 403.12 1812.34 C 407.526 1800.98 414.369 1787.87 419.512 1776.37 L 464.981 1676.9 z"/>
<path transform="translate(0,0)" fill="rgb(2,2,4)" d="M 473.201 1691.73 C 476.033 1696.76 482.034 1711.4 484.616 1717.25 C 491.451 1732.91 498.492 1748.48 505.739 1763.95 L 473.5 1764.04 L 440.091 1764.13 C 449.308 1744.75 463.914 1707.83 473.201 1691.73 z"/>
<path transform="translate(0,0)" fill="rgb(83,128,208)" d="M 694.886 1676.78 L 707.948 1676.48 C 708.343 1721.86 708.435 1767.25 708.224 1812.63 L 693.428 1812.58 C 692.527 1786.35 693.307 1756.35 693.297 1729.75 C 693.188 1720.98 693.586 1712.97 694.015 1704.25 C 685.647 1717.36 645.133 1792.2 636.959 1795.96 C 630.056 1793.25 616.947 1768.3 612.598 1760.9 L 579.87 1705.44 C 580.303 1741.07 580.336 1776.7 579.968 1812.33 L 565.073 1812.39 L 565.024 1676.84 L 578.582 1676.86 L 637.405 1777.18 C 655.914 1743.34 675.078 1709.87 694.886 1676.78 z"/>
<path transform="translate(0,0)" fill="rgb(83,128,208)" d="M 1100.31 1676.76 L 1115.61 1676.84 C 1115.42 1705.23 1115.38 1733.61 1115.48 1762 C 1115.52 1777.29 1116.07 1796.33 1115.38 1811.31 L 1113.25 1812.33 L 1100.46 1812.53 C 1099.99 1791.62 1100.23 1769.92 1100.28 1748.96 L 1016.74 1749.1 C 1016.87 1770.18 1016.84 1791.25 1016.66 1812.33 L 1001.33 1812.45 C 1000.56 1768.22 1001.33 1721.35 1001.37 1676.89 C 1006.31 1676.7 1011.95 1676.86 1016.94 1676.89 C 1017.11 1696.55 1016.86 1716.5 1016.8 1736.19 L 1100.75 1736.21 C 1099.99 1716.68 1100.29 1696.36 1100.31 1676.76 z"/>
<path transform="translate(0,0)" fill="rgb(83,128,208)" d="M 1288.04 1676.86 C 1318.19 1675.92 1352.72 1676.73 1383.13 1676.89 L 1383.18 1689.94 L 1303.28 1689.81 C 1303.31 1705.25 1303.25 1720.7 1303.08 1736.14 C 1326.9 1736.7 1350.89 1736.16 1374.79 1736.51 L 1374.67 1749.1 C 1352.03 1748.98 1329.39 1749 1306.75 1749.16 C 1305.1 1749.16 1306.03 1749.02 1304.02 1749.96 C 1302.48 1755.94 1303.19 1791.18 1303.24 1799.83 C 1330.57 1800.11 1358.26 1799.81 1385.62 1799.71 L 1385.58 1812.54 C 1353.09 1812.32 1320.59 1812.28 1288.1 1812.4 L 1288.04 1676.86 z"/>
<path transform="translate(0,0)" fill="rgb(83,128,208)" d="M 749.896 1676.93 L 844.628 1676.83 L 844.438 1689.95 C 818.227 1689.77 792.015 1689.8 765.805 1690.04 C 765.243 1704.95 765.417 1721.25 765.285 1736.27 C 788.859 1736.56 812.436 1736.56 836.01 1736.27 L 836.109 1749.34 C 814.325 1748.98 792.537 1748.88 770.75 1749.04 C 768.213 1749.06 768.863 1749.02 766.402 1749.62 C 764.81 1755.92 765.221 1790.89 765.206 1799.94 L 847.875 1799.83 L 847.837 1812.3 L 750.19 1812.3 L 749.896 1676.93 z"/>
<path transform="translate(0,0)" fill="rgb(83,128,208)" d="M 328.617 1675.37 C 352.017 1673.26 368.112 1680.61 386.138 1694.31 C 382.802 1697.74 379.582 1701.46 376.39 1705.04 C 356.234 1688.39 325.947 1681.99 304.382 1696.5 C 240.936 1739.21 301.449 1832.76 369.323 1790.44 C 369.773 1785.98 369.708 1780.09 369.791 1775.5 C 369.742 1765.26 369.901 1754.91 369.977 1744.67 L 384.935 1744.8 L 384.966 1795.85 C 373.151 1807.14 362.255 1810.15 346.044 1812.86 C 281.117 1823.73 238.538 1753.4 277.45 1700.97 C 289.238 1685.09 308.388 1677.48 328.617 1675.37 z"/>
<path transform="translate(0,0)" fill="url(#Gradient1)" d="M 908.474 1676.19 C 931.311 1674.73 944.924 1675.99 964.812 1687.3 C 963.098 1691.61 961.339 1695.91 959.535 1700.2 C 946.982 1692.12 936.885 1688.53 921.973 1688.06 C 906.908 1687.58 883.192 1695.88 886.538 1714.6 C 891.259 1741.01 944.151 1735.47 960.925 1752.86 C 967.141 1759.3 970.654 1763.8 971.052 1773.12 C 972.848 1804.9 944.852 1813.68 918.781 1813.97 C 897.198 1812.48 884.446 1810 867.583 1795.55 L 874.304 1783.36 C 892.21 1798.64 910.883 1803.29 934.253 1799.78 C 940.598 1798.83 950.107 1793.43 953.137 1787.58 C 966.058 1762.88 934.776 1754.21 916.299 1750.52 C 887.077 1744.68 856.642 1727.11 877.559 1693.27 C 884.116 1682.66 896.692 1678.63 908.474 1676.19 z"/>
<path transform="translate(0,0)" fill="rgb(135,96,199)" d="M 1580.75 1676.16 L 1611.87 1676.65 C 1612.19 1721.84 1612.24 1767.04 1612.01 1812.23 C 1601.57 1812.24 1591.12 1812.3 1580.68 1812.44 L 1580.75 1676.16 z"/>
<path transform="translate(0,0)" fill="rgb(83,128,208)" d="M 1157.99 1676.7 L 1252.99 1676.53 L 1253.13 1690 L 1173.08 1689.96 C 1172.99 1705.17 1172.67 1721.13 1173.1 1736.26 C 1173.53 1739.16 1175.1 1746.72 1173.25 1749.09 C 1172.44 1764.05 1172.97 1784.53 1172.9 1799.92 C 1200.36 1799.99 1227.81 1799.92 1255.27 1799.7 L 1255.58 1812.56 C 1223.61 1811.75 1190.1 1812.24 1158.03 1812.37 L 1157.99 1676.7 z"/>
<path transform="translate(0,0)" fill="rgb(83,128,208)" d="M 1398.96 1676.8 L 1510.99 1676.84 L 1511.01 1689.91 C 1494.63 1689.81 1478.24 1689.82 1461.85 1689.94 C 1462.1 1715.04 1462.2 1740.14 1462.13 1765.25 C 1462.05 1780.8 1462.3 1796.56 1462.42 1812.13 L 1446.98 1812.56 L 1447.05 1689.75 L 1398.87 1689.93 L 1398.96 1676.8 z"/>
<path transform="translate(0,0)" fill="rgb(83,128,208)" d="M 1173.1 1736.26 C 1195.55 1736.75 1222.66 1735.42 1244.04 1736.59 L 1244.01 1749.18 C 1220.43 1749.03 1196.84 1749 1173.25 1749.09 C 1175.1 1746.72 1173.53 1739.16 1173.1 1736.26 z"/>
</svg>